<svg id="Capa_1" enable-background="new 0 0 511.963 511.963" height="512" viewBox="0 0 511.963 511.963" width="512" xmlns="http://www.w3.org/2000/svg"><g><path d="m50.701 134.288c13.157 0 23.862-10.705 23.862-23.862s-10.705-23.862-23.862-23.862-23.861 10.705-23.861 23.862 10.703 23.862 23.861 23.862zm0-32.726c4.887 0 8.864 3.976 8.864 8.864 0 4.887-3.976 8.864-8.864 8.864s-8.863-3.976-8.863-8.864c-.001-4.888 3.975-8.864 8.863-8.864z"/><path d="m102.721 134.288c13.157 0 23.862-10.705 23.862-23.862s-10.705-23.862-23.862-23.862-23.861 10.705-23.861 23.862 10.704 23.862 23.861 23.862zm0-32.726c4.887 0 8.864 3.976 8.864 8.864 0 4.887-3.976 8.864-8.864 8.864-4.887 0-8.864-3.976-8.864-8.864.001-4.888 3.977-8.864 8.864-8.864z"/><path d="m154.742 134.288c13.157 0 23.862-10.705 23.862-23.862s-10.704-23.862-23.862-23.862c-13.157 0-23.861 10.705-23.861 23.862s10.704 23.862 23.861 23.862zm0-32.726c4.887 0 8.864 3.976 8.864 8.864 0 4.887-3.976 8.864-8.864 8.864-4.887 0-8.863-3.976-8.863-8.864-.001-4.888 3.975-8.864 8.863-8.864z"/><path d="m495.872 35.63c-10.358-10.357-24.127-16.062-38.773-16.062-14.645 0-28.415 5.704-38.773 16.062l-26.239 26.238h-334.626c-31.684 0-57.461 25.777-57.461 57.461v315.604c0 31.684 25.777 57.461 57.461 57.461h344.714c31.684 0 57.461-25.777 57.461-57.461v-285.532l25.627-25.627c2.928-2.928 2.928-7.677 0-10.605-2.929-2.928-7.677-2.929-10.606 0l-92.001 92.002-56.33-56.331 102.606-102.605c7.524-7.525 17.528-11.669 28.167-11.669s20.643 4.144 28.167 11.669c12.196 12.196 15.174 30.727 7.408 46.111-1.866 3.697-.382 8.207 3.315 10.074 3.697 1.866 8.208.382 10.074-3.315 10.69-21.18 6.595-46.688-10.191-63.475zm-51.233 399.304c0 23.414-19.049 42.463-42.464 42.463h-344.714c-23.414 0-42.463-19.049-42.463-42.463v-315.605c0-23.414 19.049-42.463 42.463-42.463h319.629l-65.332 65.332h-249.107c-19.749 0-35.815 16.062-35.815 35.804v256.933c0 16.881 13.734 30.616 30.616 30.616h34.345c4.141 0 7.499-3.357 7.499-7.499s-3.357-7.499-7.499-7.499h-34.345c-8.612 0-15.618-7.006-15.618-15.618v-256.932c0-11.473 9.338-20.807 20.817-20.807h234.109l-19.448 19.448-.599-.599c-5.799-5.798-13.508-8.992-21.709-8.992-8.2 0-15.91 3.193-21.709 8.992-9.344 9.343-11.393 23.261-6.15 34.611-20.124-2.959-41.353 3.285-56.808 18.741-10.705 10.704-17.488 24.875-19.1 39.901-3.335 31.096-16.697 59.748-37.627 80.678l-6.277 6.277c-1.406 1.407-2.196 3.314-2.196 5.303s.79 3.896 2.196 5.302c17.266 17.265 39.929 25.965 62.635 25.965 19.474 0 38.979-6.403 55.119-19.295 25.503 12.923 56.466 8.174 77.011-12.37 12.568-12.569 19.489-29.279 19.489-47.052 0-3.289-.24-6.542-.706-9.739 4.068 1.872 8.464 2.809 12.86 2.809 7.862 0 15.724-2.992 21.71-8.977 11.969-11.97 11.969-31.447 0-43.417l-.598-.598 62.936-62.936v243.687c0 8.612-7.006 15.618-15.617 15.618h-280.38c-4.141 0-7.499 3.357-7.499 7.499s3.357 7.499 7.499 7.499h280.38c16.881 0 30.615-13.734 30.615-30.616v-256.932c0-.571-.04-1.126-.065-1.687l11.917-11.916zm-200.739-226.077c-6.123-6.123-6.123-16.085 0-22.207 2.966-2.966 6.91-4.599 11.104-4.599 4.195 0 8.137 1.633 11.103 4.599l78.738 78.737c6.122 6.123 6.122 16.085.001 22.207-6.124 6.123-16.085 6.122-22.209 0h.001zm3.6 25.764c-9.666 2.409-20.566 8.019-31.681 16.644-3.272 2.539-3.866 7.25-1.327 10.522 1.478 1.905 3.692 2.902 5.93 2.902 1.606 0 3.225-.514 4.592-1.575 18.057-14.012 34.339-17.586 39.068-12.865l17.187 17.187c4.7 4.738 1.113 20.999-12.89 39.044-2.539 3.272-1.944 7.983 1.328 10.522 1.367 1.061 2.985 1.575 4.592 1.575 2.237 0 4.452-.997 5.93-2.902 8.627-11.118 14.238-22.018 16.649-31.682 6.301 8.715 9.712 19.15 9.712 30.114 0 13.768-5.362 26.711-15.097 36.447-16.929 16.928-42.987 20.015-63.37 7.503-2.836-1.741-6.479-1.405-8.948.826-27.18 24.543-67.845 25.117-95.667 2.408l.708-.708c23.343-23.343 38.236-55.194 41.934-89.684 1.266-11.801 6.381-22.485 14.793-30.896 18.101-18.104 46.426-19.891 66.557-5.382zm66.74-21.049-26.323-26.323 10.051-10.051 56.331 56.33-10.05 10.05zm50.665 9.351-56.331-56.33 7.147-7.147 56.33 56.331z"/></g></svg>